<?xml version="1.0" encoding="utf-8"?>
<!-- Generator: Adobe Illustrator 21.0.0, SVG Export Plug-In . SVG Version: 6.00 Build 0)  -->
<svg version="1.1" id="Capa_1" xmlns="http://www.w3.org/2000/svg" xmlns:xlink="http://www.w3.org/1999/xlink" x="0px" y="0px"
	 viewBox="0 0 396 125.9" style="enable-background:new 0 0 396 125.9;" xml:space="preserve">
<style type="text/css">
	.st0{fill:#FFFFFF;}
	.st1{fill:#16354D;}
	.st2{fill:#122D41;}
	.st3{fill:#9CBD20;}
</style>
<g>
	<g>
		<path class="st0" d="M35.1,60.6c0.3-0.5,0.8-0.9,1.3-1.2c-0.1,0.2-0.3,0.4-0.4,0.5c-0.1,0.1-0.2,0.3-0.3,0.4
			c-0.1,0.1-0.2,0.3-0.3,0.4c-0.2,0.3-0.3,0.5-0.5,0.8c-0.1,0.1-0.1,0.3-0.2,0.4c-0.1,0.4-0.1,0.8-0.1,1.2c0.1,0.2,0.3,0.4,0.4,0.5
			l0,0c0.5,0.6,1.1,1,1.5,1.6c0.1,0.1,0.2,0.3,0.3,0.4c0.6,0.9,0.6,2,0.6,3c0,0.4-0.1,0.7-0.3,1c-0.1,0.2-0.2,0.4-0.3,0.6
			c-0.1,0.2-0.2,0.3-0.3,0.5c-0.2,0.2-0.4,0.5-0.6,0.7l0,0c-0.5,0.6-1,1.1-1.5,1.7c0.2,0.4,0.3,0.8,0.5,1.1c0.3,0.5,0.5,0.9,0.8,1.4
			c0.5,0.8,1.1,1.6,1.6,2.4c0.2,0.2,0.3,0.5,0.5,0.7c-0.3-0.3-0.7-0.6-1-0.9l0,0c-0.1-0.1-0.2-0.2-0.2-0.2l-0.1,0l0-0.2l-0.2,0
			l0-0.2l-0.2,0l0-0.1c-0.1-0.1-0.2-0.2-0.2-0.2l0,0c-0.9-1-1.7-2.1-2.3-3.3c-0.2-0.4-0.4-0.8-0.5-1.2c-0.7-1.8-1-3.7-0.9-5.6
			c0-1.5,0.4-2.9,1-4.2c0-0.1,0.1-0.2,0.1-0.3c0.2-0.3,0.3-0.5,0.5-0.8C34.3,61.5,34.7,61,35.1,60.6L35.1,60.6z"/>
		<path class="st0" d="M91.1,59.7c0.7,0.7,1.4,1.3,1.9,2.1c0.3,0.5,0.7,1.1,0.9,1.6c0.7,1.5,1,3.2,0.9,4.8c0,1.8-0.4,3.5-1.2,5.1
			c0,0.1-0.1,0.2-0.1,0.3c-0.2,0.5-0.5,0.9-0.8,1.4c-0.1,0.1-0.2,0.3-0.3,0.4c-0.1,0.1-0.2,0.3-0.3,0.4c-0.2,0.3-0.5,0.6-0.7,0.9
			l0,0c-0.4,0.5-0.8,0.9-1.3,1.3l0,0c-0.4,0.3-0.7,0.6-1,0.9c0.5-0.7,0.9-1.3,1.4-1.9c0.5-0.8,1.1-1.6,1.5-2.5
			c0.1-0.3,0.2-0.5,0.3-0.8c0.1-0.4-0.1-0.8-0.3-1.1c-0.1-0.1-0.2-0.3-0.3-0.4c-0.3-0.3-0.5-0.6-0.8-0.9l0,0
			c-0.2-0.2-0.4-0.5-0.6-0.7c-0.1-0.2-0.2-0.3-0.3-0.4c-0.6-1.2-0.6-2.7,0-3.9c0.1-0.3,0.3-0.5,0.5-0.7c0.6-0.9,1.4-1.6,2-2.4
			c0.1-0.6-0.1-1.2-0.3-1.7c-0.2-0.3-0.4-0.6-0.5-0.9C91.4,60.2,91.3,60,91.1,59.7z"/>
		<path class="st0" d="M53.4,66.4c0.2,0.2,0.3,0.5,0.4,0.7c0.2,0.2,0.3,0.5,0.5,0.7c0.2,0.2,0.3,0.5,0.5,0.8
			c0.3,0.5,0.6,1.1,0.9,1.7c0,0.1,0.1,0.2,0.2,0.3c0,0.1,0.1,0.2,0.2,0.3c0,0.1,0.1,0.2,0.1,0.3c0.2,0.4,0.4,0.9,0.6,1.4
			c0.2,0.4,0.3,0.7,0.5,1.1c0.1,0.3,0.2,0.5,0.3,0.8c0.6,1.2,0.7,2.7-0.1,3.9c-1,1.5-2.4,2.6-4,3.4c-0.1,0-0.2,0.1-0.3,0.1
			c-0.1,0-0.2,0.1-0.3,0.2c-0.4,0.2-0.7,0.3-1.1,0.4c-0.3,0.1-0.5,0.2-0.8,0.3c0.5-0.4,1.1-0.7,1.6-1.1c0.2-0.1,0.3-0.2,0.5-0.3
			c0.2-0.1,0.3-0.2,0.5-0.3c0.1-0.1,0.3-0.2,0.4-0.3c0.8-0.6,1.6-1.2,2.2-2c0.4-0.5,0.6-1.1,0.9-1.7c0-2.3-1-4.4-1.9-6.4
			c-0.2-0.5-0.4-0.9-0.6-1.4c-0.2-0.4-0.3-0.7-0.5-1.1C53.8,67.5,53.6,67,53.4,66.4z"/>
		<path class="st0" d="M72.1,69.1c0.5-0.8,1-1.7,1.5-2.5c-0.1,0.3-0.2,0.6-0.4,0.9c-0.1,0.3-0.2,0.5-0.3,0.8
			c-0.1,0.2-0.2,0.5-0.3,0.7c-0.1,0.4-0.3,0.7-0.5,1.1c-0.2,0.4-0.4,0.8-0.5,1.3c0,0-0.1,0-0.1,0c-0.1,0.3-0.2,0.5-0.3,0.8
			c-0.4,0.8-0.6,1.7-0.9,2.5c-0.1,0.6-0.4,1.3-0.2,1.9c0.1,0.7,0.4,1.3,0.7,1.8c0.2,0.3,0.4,0.5,0.6,0.8l0.1,0l0,0.2l0.1,0
			c0.1,0.1,0.2,0.2,0.2,0.2l0,0c0.5,0.4,1,0.8,1.6,1.2c0.1,0.1,0.3,0.2,0.4,0.3c0.6,0.4,1.1,0.8,1.7,1.2c-0.5-0.2-1-0.4-1.5-0.6
			c-0.1,0-0.2-0.1-0.3-0.1c-1.5-0.7-3-1.7-3.8-3.1c-0.5-0.7-0.7-1.5-0.8-2.3c0.1-0.7,0.3-1.3,0.5-2c0.1-0.2,0.1-0.3,0.2-0.5
			c0.1-0.4,0.3-0.7,0.5-1.1c0.4-0.8,0.8-1.6,1.2-2.4C71.7,69.8,71.9,69.4,72.1,69.1z"/>
		<path class="st0" d="M73.8,70.1c0.1-0.2,0.3-0.5,0.4-0.7c-0.2,0.7-0.5,1.4-0.8,2c-0.3,0.8-0.7,1.6-1.2,2.3
			c0.3-0.8,0.5-1.7,0.9-2.4c0-0.1,0.1-0.2,0.1-0.3c0.1-0.2,0.2-0.4,0.3-0.6C73.6,70.3,73.7,70.2,73.8,70.1z"/>
	</g>
	<g>
		<g>
			<path class="st1" d="M63.1,3.7c0.3,0,0.7,0,1,0c0.2,0.2,0.5,0.1,0.7,0.1c1,0,2,0,3.1,0C68.4,4.2,69,4,69.5,4
				c0.4,0.3,0.9,0.1,1.4,0.2c0.4,0.2,0.8,0.1,1.2,0.2c0.3,0.2,0.6,0.1,0.9,0.2c0.3,0.2,0.6,0.1,0.9,0.2c0.3,0.2,0.8,0.1,1.1,0.2
				c0.3,0,0.5,0,0.8,0.2c0.3,0,0.5,0,0.8,0.1c0.2,0,0.4,0.1,0.6,0.2c0.2,0,0.4,0.1,0.6,0.2c0.1,0,0.3,0,0.4,0.1
				c0.3,0.1,0.5,0.1,0.8,0.2c0.1,0,0.3,0,0.4,0.1C79.7,6,79.9,6,80.2,6.1c0.1,0,0.2,0.1,0.3,0.1c0.2,0.1,0.3,0.1,0.5,0.2
				c0.3,0.1,0.5,0.1,0.8,0.2c0.1,0,0.2,0.1,0.3,0.1c0.2,0.1,0.3,0.1,0.5,0.2c0.2,0.1,0.3,0.1,0.5,0.1C83.1,7,83.2,7,83.4,7.1
				c0.3,0.1,0.5,0.2,0.8,0.3c0.1,0.1,0.3,0.1,0.4,0.1c0.3,0.1,0.5,0.2,0.8,0.3c0.3,0.1,0.5,0.2,0.8,0.3c0.3,0.1,0.5,0.2,0.8,0.3
				c0.3,0.2,0.7,0.3,1.1,0.4c0.1,0,0.2,0.1,0.3,0.2c0.4,0.2,0.8,0.3,1.2,0.5c0.3,0.2,0.6,0.3,0.9,0.5c0.3,0.1,0.6,0.3,0.9,0.5
				c0.2,0.1,0.4,0.2,0.6,0.3c0.2,0.1,0.4,0.3,0.6,0.4c0.2,0.1,0.4,0.2,0.6,0.3c0.3,0.1,0.5,0.3,0.8,0.5c0.3,0.1,0.5,0.3,0.8,0.5
				c0.3,0.1,0.5,0.3,0.8,0.5c2.6,1.6,5,3.4,7.3,5.4c0.6,0.3,0.9,0.9,1.5,1.2c0.9,0.8,1.8,1.8,2.7,2.6c0.4,0.4,0.8,0.8,1.2,1.3
				c0.3,0.5,0.8,0.8,1.2,1.3c2,2.3,3.7,4.7,5.3,7.2c0.2,0.4,0.5,0.8,0.8,1.2c0.2,0.4,0.4,0.8,0.7,1.2c0,0.1,0.1,0.2,0.1,0.3
				c0.2,0.2,0.3,0.5,0.5,0.7c0.1,0.2,0.2,0.4,0.3,0.6c0.1,0.2,0.2,0.4,0.3,0.6c0,0.1,0.1,0.2,0.2,0.3c0.1,0.2,0.2,0.3,0.2,0.5
				c0,0.1,0.1,0.2,0.2,0.3c0,0.1,0.1,0.2,0.2,0.3c0,0.1,0.1,0.2,0.1,0.3c0.1,0.1,0.2,0.3,0.2,0.4c0.1,0.4,0.3,0.7,0.4,1.1
				c0.1,0.3,0.2,0.6,0.4,0.9c0.2,0.3,0.3,0.7,0.5,1.1c0.1,0.2,0.1,0.4,0.2,0.6c0,0.1,0.1,0.3,0.1,0.4c0.1,0.3,0.2,0.5,0.3,0.8
				c0,0.2,0.1,0.3,0.1,0.5c0,0.2,0.1,0.3,0.2,0.5c0,0.2,0.1,0.3,0.1,0.5c0.1,0.2,0.1,0.3,0.2,0.5c0,0.1,0,0.2,0.1,0.3
				c0.1,0.2,0.1,0.3,0.2,0.5c0.1,0.2,0.1,0.3,0.2,0.5c0.1,0.3,0.1,0.5,0.2,0.8c0,0.1,0.1,0.2,0.1,0.3c0.1,0.3,0.1,0.5,0.2,0.8
				c0,0.1,0,0.3,0.1,0.4c0.1,0.3,0.1,0.5,0.2,0.8c0,0.1,0,0.3,0.1,0.4c0.1,0.3,0.1,0.6,0.2,1c0,0.1,0,0.3,0.1,0.4
				c0.1,0.2,0.1,0.5,0.2,0.8c0.2,0.3,0,0.8,0.2,1.1c0,0.3,0,0.5,0.2,0.8c0,0.4-0.1,0.7,0.2,1.1c0,0.3,0,0.6,0,0.9
				c0.2,0.4,0.1,0.9,0.1,1.4c0.3,0.5-0.1,1.2,0.3,1.7c0,0.8,0,1.6,0,2.4c0.2,0.2,0.1,0.5,0.1,0.7c0,1.2,0,2.3,0,3.5
				c0,0.2,0,0.5-0.1,0.7c0,0.6,0,1.2,0,1.9c0,0.2,0,0.5-0.1,0.7c-0.1,0.5,0.1,1.2-0.2,1.7c0,0.3,0,0.7,0,1c-0.2,0.4-0.1,0.8-0.2,1.2
				c-0.2,0.3,0,0.8-0.3,1.1c0,0.2,0,0.5,0,0.7c-0.1,0.2-0.1,0.5-0.2,0.8c-0.1,0.3-0.1,0.6-0.2,1c0,0.3,0,0.5-0.2,0.8
				c0,0.1,0,0.3-0.1,0.4c-0.1,0.3-0.1,0.6-0.2,0.9c-0.1,0.2-0.1,0.4-0.2,0.6c0,0.1-0.1,0.2-0.1,0.3c-0.1,0.3-0.1,0.5-0.2,0.8
				c0,0.2-0.1,0.4-0.2,0.6c0,0.1-0.1,0.2-0.1,0.3c-0.1,0.2-0.1,0.3-0.2,0.5c-0.1,0.2-0.1,0.3-0.2,0.5c-0.1,0.3-0.1,0.5-0.2,0.8
				c0,0.1,0,0.2-0.1,0.3c-0.1,0.3-0.2,0.5-0.3,0.8c-0.1,0.2-0.2,0.4-0.2,0.6c0,0.1,0,0.2-0.1,0.3c-0.1,0.2-0.2,0.4-0.2,0.6
				c-0.1,0.3-0.2,0.6-0.4,0.9c-0.1,0.3-0.2,0.5-0.3,0.8c-0.1,0.3-0.2,0.5-0.3,0.8c-0.2,0.3-0.3,0.7-0.4,1.1
				c-0.1,0.1-0.2,0.3-0.2,0.4c-0.1,0.2-0.2,0.3-0.2,0.5c-0.1,0.2-0.2,0.4-0.3,0.6c0,0.1-0.1,0.2-0.1,0.3c-0.1,0.1-0.2,0.3-0.2,0.4
				c-0.1,0.3-0.3,0.6-0.5,0.9c-0.1,0.2-0.2,0.4-0.3,0.6c0,0.1-0.1,0.2-0.1,0.3c-0.2,0.2-0.3,0.5-0.5,0.7c0,0.1-0.1,0.2-0.1,0.3
				c-0.2,0.2-0.3,0.5-0.5,0.8c-0.2,0.4-0.5,0.7-0.7,1.1c-1.9,3-4,5.8-6.3,8.4c-0.4,0.6-0.9,1-1.4,1.5c-0.9,0.9-1.7,1.7-2.6,2.6
				c-0.4,0.3-0.8,0.6-1.1,1c-2.4,2-4.9,3.9-7.5,5.6c-0.3,0.2-0.6,0.4-0.9,0.5c-0.3,0.1-0.5,0.3-0.8,0.5c-0.2,0.1-0.4,0.3-0.6,0.4
				c-0.1,0-0.2,0.1-0.3,0.1c-0.1,0.1-0.3,0.1-0.4,0.2c-0.3,0.2-0.7,0.4-1.1,0.6c-0.2,0.1-0.3,0.2-0.5,0.2c-0.3,0.2-0.6,0.3-0.9,0.5
				c-0.2,0.1-0.5,0.2-0.7,0.4c-0.2,0.1-0.3,0.2-0.5,0.2c-0.3,0.1-0.6,0.2-0.9,0.4c-0.3,0.2-0.7,0.3-1.1,0.5
				c-0.3,0.1-0.6,0.2-0.9,0.4c-0.3,0.1-0.5,0.2-0.8,0.3c-0.2,0.1-0.4,0.1-0.6,0.2c-0.2,0.1-0.4,0.1-0.6,0.2
				c-0.2,0.1-0.4,0.1-0.6,0.2c-0.2,0-0.3,0.1-0.5,0.1c-0.2,0-0.3,0.1-0.5,0.2c-0.2,0-0.3,0.1-0.5,0.1c-0.2,0.1-0.3,0.1-0.5,0.2
				c-0.1,0-0.2,0.1-0.3,0.1c-0.3,0.1-0.5,0.1-0.8,0.2c-0.1,0-0.2,0.1-0.3,0.1c-0.3,0.1-0.5,0.1-0.8,0.2c-0.1,0-0.2,0.1-0.3,0.1
				c-0.2,0.1-0.4,0.1-0.6,0.2c-0.2,0.1-0.4,0.1-0.6,0.2c-0.2,0.1-0.4,0.1-0.6,0.2c-0.3,0.1-0.6,0.1-0.9,0.2c-0.3,0-0.5,0-0.8,0.2
				c-0.3,0-0.5,0-0.8,0.2c-0.2,0-0.4,0-0.6,0.1c-0.3,0.2-0.8,0-1.1,0.3c-0.3,0-0.6,0-0.9,0.2c-0.3,0-0.6,0-0.9,0
				c-0.5,0.3-1.1-0.1-1.6,0.3c-0.5,0-1,0-1.5,0c-0.2,0.2-0.5,0.1-0.7,0.1c-0.8,0-1.5,0-2.3,0c-0.3,0.2-0.6,0.1-0.9,0.1
				c-0.9,0-1.7,0-2.6,0c-0.2-0.2-0.5-0.1-0.7-0.1c-0.7,0-1.4,0-2.2,0c-0.6-0.4-1.3,0.1-1.9-0.3c-0.4,0-0.8,0-1.2,0
				c-0.3-0.2-0.7-0.1-1.1-0.2c-0.3-0.2-0.6-0.1-0.9-0.2c-0.3-0.2-0.8-0.1-1.1-0.2c-0.3,0-0.5,0-0.8-0.2c-0.2,0-0.4,0-0.6-0.1
				c-0.2-0.1-0.5-0.1-0.8-0.2c-0.3-0.1-0.6-0.1-0.9-0.2c-0.2-0.1-0.4-0.1-0.6-0.2c-0.2,0-0.4-0.1-0.6-0.2c-0.2,0-0.4-0.1-0.6-0.2
				c-0.1,0-0.2-0.1-0.3-0.1c-0.3-0.1-0.5-0.1-0.8-0.2c-0.1,0-0.2-0.1-0.3-0.1c-0.3-0.1-0.5-0.1-0.8-0.2c-0.1,0-0.2-0.1-0.3-0.1
				c-0.2-0.1-0.3-0.1-0.5-0.2c-0.2-0.1-0.3-0.1-0.5-0.1c-0.2-0.1-0.3-0.1-0.5-0.2c-0.2-0.1-0.3-0.1-0.5-0.2
				c-0.2-0.1-0.3-0.1-0.5-0.1c-0.3-0.1-0.5-0.2-0.8-0.3c-0.1-0.1-0.3-0.1-0.4-0.1c-0.3-0.1-0.5-0.2-0.8-0.3
				c-0.3-0.1-0.5-0.2-0.8-0.3c-0.3-0.1-0.5-0.2-0.8-0.3c-0.1-0.1-0.3-0.2-0.4-0.2c-0.4-0.1-0.7-0.3-1.1-0.4
				c-0.2-0.1-0.4-0.2-0.6-0.3c-0.2-0.1-0.4-0.2-0.6-0.3c-0.2-0.1-0.4-0.2-0.6-0.3c-0.3-0.1-0.5-0.3-0.8-0.4
				c-0.1-0.1-0.3-0.2-0.4-0.2c-0.3-0.1-0.6-0.3-0.9-0.4c-0.2-0.1-0.4-0.3-0.6-0.4c-0.4-0.2-0.8-0.4-1.2-0.7
				c-0.4-0.2-0.8-0.5-1.2-0.8c-2.6-1.7-5.1-3.5-7.4-5.6c-0.6-0.4-1-1-1.6-1.5c-0.9-0.7-1.7-1.5-2.4-2.4c-0.5-0.6-1.2-1.1-1.6-1.7
				c-1-0.9-1.7-2-2.6-3.1c-1.1-1.5-2.2-3.1-3.2-4.6c-0.2-0.4-0.5-0.8-0.8-1.2c-0.1-0.2-0.1-0.3-0.2-0.5c-0.2-0.3-0.4-0.6-0.5-0.9
				c-0.2-0.5-0.6-1-0.8-1.5c0-0.1-0.1-0.2-0.1-0.3c0-0.1-0.1-0.2-0.2-0.3c-0.1-0.2-0.2-0.4-0.3-0.6c0-0.1-0.1-0.2-0.1-0.3
				c-0.1-0.2-0.2-0.4-0.3-0.6c-0.1-0.4-0.3-0.7-0.4-1.1c-0.2-0.4-0.4-0.8-0.5-1.2c-0.2-0.3-0.3-0.6-0.4-0.9
				c-0.1-0.3-0.2-0.6-0.4-0.9c-0.1-0.1-0.1-0.3-0.2-0.4c-0.1-0.2-0.1-0.4-0.2-0.6C7,84,7,83.8,6.9,83.6c-0.1-0.1-0.1-0.3-0.1-0.4
				c-0.1-0.2-0.1-0.4-0.2-0.6c0-0.1-0.1-0.2-0.1-0.3c-0.1-0.3-0.1-0.5-0.2-0.8c-0.1-0.2-0.1-0.3-0.2-0.5C6,81,6,80.9,6,80.8
				c-0.1-0.2-0.1-0.4-0.2-0.6c-0.1-0.3-0.1-0.5-0.2-0.8c0-0.1-0.1-0.2-0.1-0.3c-0.1-0.2-0.1-0.4-0.2-0.6c-0.1-0.3-0.1-0.6-0.2-0.9
				c0-0.1,0-0.3-0.1-0.4C5,77,4.9,76.8,4.9,76.5c-0.1-0.2-0.1-0.5-0.1-0.8c-0.1-0.2-0.1-0.5-0.2-0.8c-0.2-0.3,0-0.8-0.2-1.1
				c0-0.2,0-0.5,0-0.7c-0.2-0.3-0.1-0.7-0.1-1.1C4,71.8,4.1,71.5,4,71.1c-0.3-0.5-0.1-1-0.1-1.5c-0.3-0.6-0.1-1.3-0.2-2
				c-0.2-0.3-0.1-0.6-0.1-0.9c0-2.1,0-4.3,0-6.4c0.3-0.7,0.1-1.4,0.2-2.1c0.3-0.4,0.1-0.9,0.2-1.4c0.3-0.4,0-1,0.3-1.4
				c0-0.3,0-0.6,0-0.9c0.2-0.3,0-0.8,0.3-1.1c0-0.2,0-0.5,0-0.7c0.1-0.3,0.1-0.7,0.2-1c0-0.3,0-0.5,0.2-0.8c0-0.1,0-0.3,0.1-0.4
				c0.1-0.3,0.1-0.7,0.2-1c0-0.1,0-0.3,0.1-0.4c0.1-0.3,0.1-0.5,0.2-0.8c0-0.1,0.1-0.2,0.1-0.3c0.1-0.2,0.1-0.4,0.2-0.6
				c0.1-0.3,0.1-0.5,0.2-0.8c0-0.2,0.1-0.3,0.2-0.5c0.1-0.2,0.1-0.3,0.2-0.5c0-0.1,0.1-0.2,0.1-0.3c0.1-0.3,0.1-0.5,0.2-0.8
				c0-0.1,0.1-0.3,0.2-0.4c0.1-0.3,0.2-0.5,0.3-0.8c0-0.1,0-0.2,0.1-0.3c0.1-0.2,0.1-0.3,0.2-0.5c0.1-0.2,0.1-0.4,0.2-0.6
				c0.1-0.3,0.3-0.6,0.4-0.9c0.1-0.3,0.2-0.5,0.3-0.7c0.2-0.4,0.4-0.9,0.6-1.4c0.2-0.3,0.3-0.7,0.4-1.1c0-0.1,0.1-0.2,0.2-0.3
				c0-0.1,0.1-0.2,0.1-0.3c0-0.1,0.1-0.2,0.2-0.3c0.1-0.2,0.2-0.4,0.3-0.6c0.1-0.2,0.2-0.5,0.4-0.7c0-0.1,0.1-0.2,0.1-0.3
				c0.1-0.2,0.3-0.4,0.4-0.6c0.1-0.1,0.1-0.3,0.2-0.4c0.2-0.3,0.4-0.6,0.5-0.9c0.2-0.4,0.4-0.7,0.6-1.1c0.2-0.4,0.5-0.8,0.8-1.2
				c0.3-0.6,0.7-1.1,1.1-1.7c1-1.5,2.1-3,3.3-4.4c0.3-0.5,0.9-0.9,1.2-1.4c0.6-0.7,1.3-1.3,1.9-2c0.3-0.4,0.6-0.8,1-1
				c0.7-0.6,1.3-1.3,2-1.9c0.5-0.3,0.8-0.8,1.3-1.1c2.2-1.8,4.5-3.5,6.9-5c0.4-0.2,0.8-0.5,1.2-0.8c0.2-0.1,0.3-0.1,0.5-0.2
				c0.2-0.1,0.4-0.3,0.6-0.4c0.1-0.1,0.3-0.1,0.4-0.2c0.2-0.1,0.4-0.3,0.6-0.4c0.1-0.1,0.3-0.1,0.4-0.2c0.2-0.1,0.3-0.2,0.5-0.2
				c0.1-0.1,0.3-0.2,0.4-0.2c0.2-0.1,0.3-0.2,0.5-0.2c0.2-0.1,0.4-0.2,0.6-0.3c0.2-0.1,0.4-0.2,0.6-0.3c0.6-0.3,1.2-0.5,1.8-0.8
				c0.2-0.1,0.5-0.2,0.8-0.3c0.2-0.1,0.5-0.2,0.8-0.3c0.3-0.1,0.6-0.2,0.9-0.4c0.1-0.1,0.3-0.1,0.4-0.2c0.2-0.1,0.3-0.1,0.5-0.1
				c0.2-0.1,0.4-0.1,0.6-0.2C44,7,44.1,7,44.2,6.9c0.3-0.1,0.6-0.2,0.9-0.3c0.2,0,0.3-0.1,0.5-0.2c0.2-0.1,0.3-0.1,0.5-0.2
				c0.1,0,0.2-0.1,0.3-0.1c0.3-0.1,0.5-0.1,0.8-0.2c0.1,0,0.2-0.1,0.3-0.1c0.2-0.1,0.4-0.1,0.6-0.2c0.2-0.1,0.4-0.1,0.6-0.1
				c0.3-0.1,0.5-0.1,0.8-0.2c0.2,0,0.4-0.1,0.6-0.2c0.1,0,0.3,0,0.4-0.1C50.7,5.1,51,5.1,51.2,5c0.3-0.1,0.7-0.1,1-0.2
				c0.2,0,0.5,0,0.7,0c0.3-0.2,0.6-0.1,0.9-0.2c0.4-0.3,0.9,0,1.3-0.3c0.3,0,0.6,0,0.9,0C56.4,4,57,4.4,57.5,4
				c0.6-0.1,1.3,0.1,1.8-0.2c1,0,2.1,0,3.1,0C62.6,3.9,62.9,3.9,63.1,3.7z M54.2,11.1c-10,2.3-18.9,9-24.1,17.9
				c-2.5,4.3-3.9,9.2-4.2,14.1c-0.2,1.8-0.1,3.6-0.1,5.5c0.1,3,0.5,5.9,0.9,8.8c0.2,1.2,0.5,2.4,0.6,3.7c0.9-1.4,1.7-2.8,2.7-4.1
				c1.1-1.5,2.6-2.8,4.2-3.7c1.9-1.1,4.1-1.8,6.3-1.7c2.8,0,5.5,1.1,7.7,2.8c1.1,0.9,2.3,1.8,3,3c-0.5-0.2-1-0.6-1.5-0.9
				c-2-1.3-4-2.7-6.4-3.3c-1.4-0.4-2.9-0.4-4.4-0.3c-2.2,0.2-4.3,1.2-6,2.6c-2.8,2.4-4.6,5.9-5.2,9.5c-0.3,2.7,0.2,5.5,1.1,8
				c0.5,1.7,1.3,3.3,2.3,4.8c3,4.4,7.9,7.4,13.1,8.5c1.1,0.2,2.3,0.4,3.4,0.9c0.2,0.1,0.4,0.3,0.5,0.5c-3.4,0.3-6.9-0.7-9.9-2.2
				c-2.5-1.3-4.8-3-6.8-4.9c0.4,1.3,0.7,2.6,1.1,3.8c0.9,2.9,2,5.7,3.3,8.4c1.5,3.3,3.1,6.5,5,9.6c2.2,3.4,4.6,6.6,7.8,9.2
				c4.3,3.5,9.6,5.7,15,6.3c0.5,0,1-0.1,1.5-0.2c6.2-1,12-4.2,16.3-8.8c2.5-2.5,4.3-5.6,6.1-8.6c2.6-4.5,4.7-9.3,6.4-14.2
				c0.7-2,1.3-4.1,2-6.2c-0.2,0.3-0.4,0.5-0.6,0.7c-1.1,1-2.2,2-3.4,2.8c-3.8,2.8-8.6,4.5-13.3,4.2c0.8-0.8,1.9-0.9,3-1.1
				c5.8-0.9,11.3-4.2,14.6-9.1c1.5-2.2,2.3-4.9,2.9-7.5c0.5-2.1,0.6-4.4,0-6.5c-0.4-1.3-0.9-2.6-1.5-3.8c-0.9-1.7-2.1-3.2-3.6-4.4
				c-1.9-1.6-4.3-2.5-6.8-2.5c-2.5-0.2-5,0.8-7.2,1.9c-0.8,0.4-1.6,0.9-2.4,1.2c0.2-0.5,0.6-0.8,1-1.2c2.9-2.6,7-3.8,10.8-2.9
				c2.5,0.6,4.8,2,6.6,3.9c1.4,1.6,2.6,3.5,3.7,5.4c0.8-4.2,1.5-8.4,1.6-12.7c0.2-5.3-0.5-10.8-2.5-15.7
				c-3.2-7.3-8.7-13.4-15.6-17.4c-5.5-3.2-11.8-4.9-18.2-5.3c-1.1,0-2.2,0-3.3,0C59.2,10.1,56.7,10.5,54.2,11.1z"/>
		</g>
		<path class="st2" d="M66.3,11.1c0.6,0,1.1,0,1.7,0.1c6.6,0.8,12.9,3.3,18.2,7.2c2,1.6,4,3.2,5.7,5.2c2,2.3,3.8,4.8,5.1,7.5
			c2.1,4.2,3.2,8.9,3.3,13.6c0.1,1.5,0,3,0,4.6c-0.2,2.8-0.4,5.7-0.8,8.5c-1.5-1.9-3.1-3.7-5-5.1c-1.8-1.3-3.8-2.3-6.1-2.4
			c-1.3,0-2.5-0.2-3.8,0.1c-2.3,0.4-4.3,1.7-6.1,3.1c-0.6,0.5-1.2,1-1.9,1.4c0.6-1.4,1.7-2.5,2.6-3.7c1.4-1.8,3-3.5,4.4-5.3
			c-0.7,0.4-1.4,0.8-2.2,1c0.4-0.9,0.9-1.7,1.4-2.5c1.3-2.1,2.5-4.3,2.9-6.8c0.1-1.3,0.3-2.6,0.1-3.8c-0.3-2.8-1.5-5.5-2.9-7.9
			c-0.9-1.5-2-3-3.1-4.3c-3.4-4-7.9-6.9-12.4-9.7C67,11.6,66.6,11.4,66.3,11.1z"/>
		<path class="st2" d="M69.2,14.3c0.9,0.4,1.7,1,2.6,1.5c4.5,3.1,8.5,7.1,10.9,12c0.3,0.6,0.6,1.2,0.8,1.9c-1.1-1.1-1.9-2.3-2.8-3.5
			c-1.6-2.2-3.4-4.2-5.4-6.1c-0.8-0.9-1.8-1.6-2.7-2.5c-1-0.8-1.8-1.7-2.8-2.5C69.5,14.9,69.3,14.6,69.2,14.3z"/>
		<path class="st2" d="M34.2,24.8c0.3-0.4,0.6-0.7,1-1c-0.5,1.3-1.3,2.4-1.8,3.7c-0.2,0.6-0.2,1.3-0.3,2c-0.3,3.3-1.8,6.3-2.1,9.5
			c0,1.3,0,2.6,0.2,3.9c0.6,2.7,2.5,4.9,4.6,6.6c0.4,0.4,1,0.6,1.4,1.1c-1.5,0.7-3.1,1.2-4.4,2.1c-1.8,1.2-3.1,3-4.8,4.4
			c-0.2-0.1-0.2-0.4-0.2-0.6c-0.6-4.8-0.8-9.7-0.5-14.5c0.1-4.6,1.7-9.1,4-13C32.2,27.6,33.2,26.2,34.2,24.8z"/>
		<path class="st2" d="M33,33.5c0.1-0.2,0.1-0.3,0.2-0.4c0.2,3.1-0.5,6.1,0,9.2c0.3,1.7,1.1,3.1,1.9,4.6c0.1,0.3,0.3,0.6,0.3,0.9
			c-0.8-0.4-1.3-1.1-1.8-1.8c-1.3-1.9-1.8-4.4-1.7-6.7C32,37.3,32.5,35.4,33,33.5z"/>
		<g>
			<path class="st2" d="M33.5,58.9c1.6-1.8,3.9-3.1,6.3-3.2c2.3-0.2,4.6,0.3,6.6,1.2c2.9,1.3,5.3,3.5,7.1,6.1c1.1,1.6,2,3.3,3.2,4.8
				c0.4-0.6,0.9-1.1,1.4-1.7c0.5,0.6,0.7,1.4,1.1,2.1c2.2,5.4,2.3,11.6,1,17.2c-0.1,0.4-0.1,1-0.5,1.3c-0.1-1.2,0-2.5-0.1-3.7
				c0-0.5,0-1,0-1.5c-0.5,0.7-1.1,1.2-1.7,1.8c-1.2,1.2-2.5,2.3-4,3.1c0.1-0.6,0.3-1.2,0.5-1.8c-1,0.4-2.1,0.7-3.2,0.8
				c0.7-0.8,1.6-1.3,2.5-1.9c-2.1,0.5-4.2,0.9-6.4,0.9c-1.7,0-3.5-0.3-5.1-1c-2.6-1.1-5.1-2.6-7.1-4.7c-1.8-1.7-3.2-3.8-4-6.2
				c-0.8-2.1-0.8-4.3-0.8-6.5C30.6,63.5,31.7,60.9,33.5,58.9z M35.1,60.6L35.1,60.6c-0.4,0.4-0.8,0.9-1.1,1.3
				c-0.2,0.2-0.3,0.5-0.5,0.8c0,0.1-0.1,0.2-0.1,0.3c-0.7,1.3-1,2.8-1,4.2c-0.1,1.9,0.2,3.8,0.9,5.6c0.1,0.4,0.3,0.8,0.5,1.2
				c0.6,1.2,1.4,2.3,2.3,3.3l0,0c0.1,0.1,0.2,0.2,0.2,0.2l0,0.1l0.2,0l0,0.2l0.2,0l0,0.2l0.1,0c0.1,0.1,0.2,0.2,0.2,0.2l0,0
				c0.3,0.3,0.7,0.6,1,0.9c-0.2-0.2-0.3-0.5-0.5-0.7c-0.5-0.8-1.1-1.6-1.6-2.4c-0.3-0.5-0.6-0.9-0.8-1.4c-0.2-0.4-0.4-0.7-0.5-1.1
				c0.5-0.6,1-1.1,1.5-1.7l0,0c0.2-0.2,0.4-0.5,0.6-0.7c0.1-0.2,0.2-0.3,0.3-0.5c0.1-0.2,0.2-0.4,0.3-0.6c0.1-0.3,0.3-0.7,0.3-1
				c0-1,0-2.1-0.6-3c-0.1-0.1-0.2-0.3-0.3-0.4c-0.4-0.6-1-1.1-1.5-1.6l0,0c-0.1-0.2-0.3-0.4-0.4-0.5c0-0.4,0-0.8,0.1-1.2
				c0.1-0.1,0.1-0.3,0.2-0.4c0.1-0.3,0.3-0.5,0.5-0.8c0.1-0.1,0.2-0.3,0.3-0.4c0.1-0.1,0.2-0.3,0.3-0.4c0.1-0.2,0.3-0.4,0.4-0.5
				C35.9,59.7,35.4,60.1,35.1,60.6z M53.4,66.4c0.2,0.6,0.4,1.1,0.6,1.7c0.1,0.4,0.3,0.7,0.5,1.1c0.2,0.5,0.4,0.9,0.6,1.4
				c0.9,2.1,1.8,4.2,1.9,6.4c-0.2,0.6-0.5,1.2-0.9,1.7c-0.6,0.8-1.4,1.4-2.2,2c-0.2,0.1-0.3,0.2-0.4,0.3c-0.2,0.1-0.3,0.2-0.5,0.3
				c-0.2,0.1-0.3,0.2-0.5,0.3c-0.6,0.3-1.1,0.7-1.6,1.1c0.3-0.1,0.5-0.2,0.8-0.3c0.4-0.1,0.7-0.3,1.1-0.4c0.1,0,0.2-0.1,0.3-0.2
				c0.1,0,0.2-0.1,0.3-0.1c1.6-0.8,3-1.9,4-3.4c0.8-1.1,0.7-2.6,0.1-3.9c-0.1-0.3-0.2-0.5-0.3-0.8c-0.1-0.4-0.3-0.7-0.5-1.1
				c-0.2-0.5-0.4-0.9-0.6-1.4c0-0.1-0.1-0.2-0.1-0.3c0-0.1-0.1-0.2-0.2-0.3c0-0.1-0.1-0.2-0.2-0.3c-0.3-0.6-0.6-1.1-0.9-1.7
				c-0.1-0.3-0.3-0.5-0.5-0.8c-0.2-0.3-0.3-0.5-0.5-0.7C53.7,66.9,53.6,66.6,53.4,66.4z M53.1,69.9c0.3,1.3,0.8,2.6,1.7,3.6
				C54.5,72.2,53.9,70.9,53.1,69.9z"/>
		</g>
		<g>
			<path class="st2" d="M79,57.8c2.1-1.3,4.4-2,6.8-2.1c2.3-0.1,4.7,0.6,6.5,2c1.1,0.9,2,2,2.7,3.2c1.3,2.2,1.9,4.7,1.8,7.2
				c-0.2,2.1-0.5,4.1-1.4,6c-2.3,5-7.1,8.5-12.3,10c-3.4,0.9-7,0.1-10.3-0.9c1.3,1,2.8,1.6,4,2.6c-1.5-0.2-2.9-0.8-4.3-1.2
				c0.2,0.6,0.4,1.1,0.5,1.7c-2.1-1.2-3.9-3-5.5-4.8c0.1,1.5-0.1,3.1-0.2,4.6c-0.2-0.2-0.3-0.4-0.4-0.7c-0.8-3.1-0.9-6.3-0.7-9.4
				c0.1-2.4,0.4-4.7,1.4-6.9c0.4,0.2,0.8,0.4,1.1,0.6c2.1-1.9,3.1-4.6,4.7-6.8C75,60.9,76.9,59.1,79,57.8z M91.1,59.7
				c0.1,0.3,0.3,0.5,0.4,0.8c0.2,0.3,0.3,0.6,0.5,0.9c0.2,0.6,0.4,1.1,0.3,1.7c-0.6,0.9-1.4,1.5-2,2.4c-0.2,0.2-0.3,0.5-0.5,0.7
				c-0.6,1.2-0.6,2.7,0,3.9c0.1,0.1,0.2,0.3,0.3,0.4c0.2,0.2,0.4,0.5,0.6,0.7l0,0c0.2,0.3,0.5,0.6,0.8,0.9c0.1,0.1,0.2,0.3,0.3,0.4
				c0.2,0.3,0.4,0.7,0.3,1.1c-0.1,0.2-0.3,0.5-0.3,0.8c-0.4,0.9-1,1.7-1.5,2.5c-0.5,0.6-1,1.3-1.4,1.9c0.4-0.3,0.7-0.6,1-0.9l0,0
				c0.5-0.4,0.9-0.8,1.3-1.3l0,0c0.2-0.3,0.5-0.6,0.7-0.9c0.1-0.1,0.2-0.3,0.3-0.4c0.1-0.1,0.2-0.3,0.3-0.4c0.3-0.4,0.5-0.9,0.8-1.4
				c0-0.1,0.1-0.2,0.1-0.3c0.8-1.6,1.2-3.4,1.2-5.1c0.1-1.7-0.2-3.3-0.9-4.8c-0.2-0.6-0.6-1.1-0.9-1.6C92.5,61,91.8,60.4,91.1,59.7z
				 M72.1,69.1c-0.2,0.3-0.4,0.7-0.6,1.1c-0.5,0.8-0.9,1.6-1.2,2.4c-0.2,0.4-0.3,0.7-0.5,1.1c-0.1,0.2-0.1,0.3-0.2,0.5
				c-0.2,0.7-0.4,1.3-0.5,2c0.1,0.8,0.3,1.6,0.8,2.3c0.9,1.4,2.3,2.4,3.8,3.1c0.1,0,0.2,0.1,0.3,0.1c0.5,0.2,1,0.4,1.5,0.6
				c-0.6-0.4-1.2-0.8-1.7-1.2c-0.1-0.1-0.3-0.2-0.4-0.3c-0.5-0.4-1-0.8-1.6-1.2l0,0c-0.1-0.1-0.2-0.2-0.2-0.2l-0.1,0l0-0.2l-0.1,0
				c-0.2-0.3-0.4-0.5-0.6-0.8c-0.3-0.6-0.6-1.2-0.7-1.8c-0.1-0.7,0.1-1.3,0.2-1.9c0.3-0.9,0.6-1.7,0.9-2.5c0.1-0.3,0.2-0.5,0.3-0.8
				c0,0,0.1,0,0.1,0c0.2-0.4,0.4-0.9,0.5-1.3c0.2-0.3,0.3-0.7,0.5-1.1c0.1-0.2,0.2-0.5,0.3-0.7c0.1-0.3,0.2-0.5,0.3-0.8
				c0.1-0.3,0.2-0.6,0.4-0.9C73.1,67.4,72.6,68.2,72.1,69.1z M73.8,70.1c0,0.1-0.1,0.2-0.2,0.3c-0.1,0.2-0.2,0.4-0.3,0.6
				c0,0.1-0.1,0.2-0.1,0.3c-0.4,0.8-0.6,1.6-0.9,2.4c0.4-0.8,0.8-1.5,1.2-2.3c0.3-0.7,0.6-1.3,0.8-2C74,69.6,73.9,69.9,73.8,70.1z"
				/>
		</g>
		<path class="st2" d="M91,85.5c1-0.6,1.9-1.3,2.9-1.9c-0.8,2.3-1.7,4.5-2.6,6.8c-2,4.8-4.4,9.5-7.4,13.8c-2.4,3.5-5.2,6.7-8.9,8.9
			c-1.1,0.6-2.2,1.3-3.4,1.6c0.9-1.1,2.1-2,3.1-3c2.9-2.9,5.6-6.1,7.5-9.8c1.2-2.3,2.2-4.7,2.4-7.2c0.1-0.8,0-1.6-0.2-2.3
			c-0.4-1.3-1.5-2.3-2.2-3.5C85.2,88.2,88.3,87.1,91,85.5z"/>
		<path class="st2" d="M33.6,84.1c1.9,0.9,3.7,2.1,5.6,2.9c0.3,0.1,0.6,0.3,0.9,0.5c-0.5,0.7-1,1.4-1.3,2.2
			c-0.6,1.8-0.4,3.7-0.4,5.5c-0.5-0.4-0.7-1-1-1.6C35.9,90.6,34.7,87.4,33.6,84.1z"/>
		<path class="st2" d="M58.7,93.3c0.6-0.9,1.5-1.5,2.4-1.9c-0.1,1.4-0.1,2.9-0.5,4.2c-0.2,0.7-0.5,1.6-1.3,1.8
			c-0.6,0.2-1.2,0.1-1.8,0.1C57.4,96.1,57.8,94.6,58.7,93.3z"/>
		<path class="st2" d="M66,91.4c1.8,0.7,3.2,2.4,3.5,4.3c0.1,0.6,0,1.1-0.1,1.7c-0.5,0.3-1.1,0.4-1.6,0.1c-1.1-0.6-1.4-2-1.6-3.2
			C66.1,93.4,66,92.4,66,91.4z"/>
		<path class="st2" d="M56.1,94.3c0.4-1.1,1.1-2.1,2.2-2.6c-0.3,0.6-0.6,1.2-0.9,1.8c-0.5,1.2-0.8,2.4-1.3,3.5
			c-0.1,0.2-0.3,0.3-0.4,0.5C55.6,96.4,55.7,95.3,56.1,94.3z"/>
		<path class="st2" d="M69.5,92.1c1.5,1.2,1.9,3.4,1.8,5.2c-0.4-0.5-0.6-1.1-0.8-1.7C70.2,94.5,69.7,93.4,69.5,92.1z"/>
		<path class="st2" d="M61.6,102.8c1.6-0.4,3.3-0.3,4.8,0.3c0.2,0.1,0.3,0.2,0.5,0.3c-1.2,0-2.3-0.2-3.5-0.2
			c-1.1-0.1-2.2,0.2-3.3,0.1C60.5,103.1,61.1,102.9,61.6,102.8z"/>
		<path class="st2" d="M57.6,104.9c1.2-0.2,2.4-0.3,3.5,0.1c2.3,0.7,4.6-0.1,6.9-0.3c1.1-0.1,2.2,0.1,3.2,0.4
			c0.1,0.1,0.1,0.3,0.2,0.4c-2.2,0.1-4.3,0.3-6.4,0.7c-3.1,0.3-6.1-0.7-9.1-0.8C56.4,105.1,57,105,57.6,104.9z"/>
		<path class="st2" d="M57.1,106.5c0.9,0.3,1.7,0.8,2.6,1.3c1.2,0.7,2.5,1.1,3.9,1.2c1-0.1,2-0.3,3-0.8c1.1-0.5,2.1-1.2,3.3-1.6
			c-1.2,1.5-3,2.3-4.3,3.7c-0.8,1.3-0.9,2.8-0.7,4.3c0.1,0.8,0.5,1.5,0.8,2.3c-1.4,0-2.8,0-4.2,0c0.6-1.3,0.9-2.7,0.9-4.1
			c-0.1-0.9-0.1-1.7-0.3-2.6c-1-0.5-2-1.1-2.9-1.8C58.4,107.8,57.6,107.3,57.1,106.5z"/>
	</g>
	<g>
		<g>
			<path class="st3" d="M54.2,11.1c2.5-0.7,5-1,7.6-1.2c1.1,0,2.2,0,3.3,0c6.3,0.4,12.7,2.1,18.2,5.3c6.8,4,12.4,10.2,15.6,17.4
				c2,5,2.7,10.4,2.5,15.7c-0.1,4.3-0.8,8.5-1.6,12.7c-1.1-1.9-2.3-3.7-3.7-5.4c-1.7-1.9-4-3.4-6.6-3.9c-3.8-0.8-7.9,0.4-10.8,2.9
				c-0.4,0.3-0.8,0.7-1,1.2c0.9-0.3,1.6-0.8,2.4-1.2c2.2-1.1,4.6-2.1,7.2-1.9c2.5,0,4.9,0.9,6.8,2.5c1.5,1.2,2.7,2.7,3.6,4.4
				c0.7,1.2,1.1,2.5,1.5,3.8c0.6,2.1,0.5,4.4,0,6.5c-0.6,2.6-1.4,5.3-2.9,7.5c-3.3,4.9-8.8,8.2-14.6,9.1c-1,0.2-2.2,0.4-3,1.1
				c4.8,0.3,9.5-1.4,13.3-4.2c1.2-0.8,2.3-1.8,3.4-2.8c0.2-0.2,0.4-0.5,0.6-0.7c-0.7,2.1-1.3,4.1-2,6.2c-1.7,4.9-3.9,9.7-6.4,14.2
				c-1.8,3-3.6,6-6.1,8.6c-4.3,4.6-10.1,7.8-16.3,8.8c-0.5,0.1-1,0.2-1.5,0.2c-5.5-0.5-10.8-2.8-15-6.3c-3.1-2.5-5.6-5.8-7.8-9.2
				c-1.9-3.1-3.5-6.3-5-9.6c-1.3-2.7-2.4-5.5-3.3-8.4c-0.4-1.3-0.7-2.6-1.1-3.8c2,1.9,4.3,3.6,6.8,4.9c3,1.6,6.5,2.5,9.9,2.2
				c-0.2-0.2-0.3-0.4-0.5-0.5c-1.1-0.5-2.2-0.7-3.4-0.9c-5.2-1.1-10.1-4.1-13.1-8.5c-1-1.5-1.8-3.1-2.3-4.8c-0.8-2.6-1.4-5.3-1.1-8
				c0.5-3.6,2.3-7.1,5.2-9.5c1.7-1.4,3.8-2.4,6-2.6c1.5-0.1,3-0.1,4.4,0.3c2.3,0.6,4.4,2,6.4,3.3c0.5,0.3,1,0.7,1.5,0.9
				c-0.8-1.2-1.9-2.1-3-3c-2.2-1.7-4.9-2.8-7.7-2.8c-2.2-0.1-4.4,0.6-6.3,1.7c-1.6,0.9-3.1,2.2-4.2,3.7c-1,1.3-1.8,2.7-2.7,4.1
				c-0.1-1.2-0.4-2.4-0.6-3.7c-0.5-2.9-0.8-5.9-0.9-8.8c0-1.8-0.1-3.7,0.1-5.5c0.3-4.9,1.7-9.8,4.2-14.1
				C35.2,20.1,44.2,13.5,54.2,11.1z M66.3,11.1c0.3,0.3,0.7,0.5,1,0.7c4.4,2.8,8.9,5.7,12.4,9.7c1.1,1.4,2.2,2.8,3.1,4.3
				c1.5,2.4,2.7,5.1,2.9,7.9c0.2,1.3,0,2.6-0.1,3.8c-0.4,2.5-1.6,4.7-2.9,6.8c-0.5,0.8-1.1,1.6-1.4,2.5c0.8-0.2,1.4-0.7,2.2-1
				c-1.4,1.8-3,3.5-4.4,5.3c-0.9,1.2-1.9,2.3-2.6,3.7c0.7-0.4,1.2-1,1.9-1.4c1.8-1.4,3.9-2.6,6.1-3.1c1.2-0.3,2.5-0.1,3.8-0.1
				c2.2,0.2,4.3,1.1,6.1,2.4c1.9,1.4,3.5,3.3,5,5.1c0.4-2.8,0.6-5.7,0.8-8.5c0-1.5,0.2-3,0-4.6c-0.1-4.7-1.2-9.4-3.3-13.6
				c-1.3-2.7-3.1-5.2-5.1-7.5c-1.7-2-3.6-3.7-5.7-5.2C80.8,14.5,74.5,12,68,11.2C67.4,11.1,66.8,11.1,66.3,11.1z M69.2,14.3
				c0.2,0.3,0.4,0.6,0.6,0.8c0.9,0.8,1.8,1.8,2.8,2.5c0.9,0.9,1.8,1.6,2.7,2.5c2,1.9,3.8,3.9,5.4,6.1c0.9,1.2,1.8,2.5,2.8,3.5
				c-0.2-0.7-0.4-1.3-0.8-1.9c-2.4-4.9-6.4-8.9-10.9-12C70.9,15.3,70.1,14.7,69.2,14.3z M34.2,24.8c-1,1.4-2.1,2.7-2.9,4.2
				c-2.3,3.9-3.9,8.4-4,13c-0.3,4.8-0.1,9.7,0.5,14.5c0.1,0.2,0,0.5,0.2,0.6c1.6-1.4,2.9-3.2,4.8-4.4c1.4-0.9,3-1.4,4.4-2.1
				c-0.4-0.4-0.9-0.7-1.4-1.1c-2.1-1.7-4.1-3.9-4.6-6.6c-0.2-1.3-0.3-2.6-0.2-3.9c0.3-3.3,1.8-6.3,2.1-9.5c0-0.7,0-1.4,0.3-2
				c0.4-1.3,1.3-2.4,1.8-3.7C34.9,24.2,34.5,24.5,34.2,24.8z M33,33.5c-0.6,1.9-1,3.9-1,5.8c-0.1,2.3,0.4,4.7,1.7,6.7
				c0.5,0.7,1,1.4,1.8,1.8c-0.1-0.3-0.2-0.6-0.3-0.9c-0.7-1.5-1.6-3-1.9-4.6c-0.5-3.1,0.2-6.1,0-9.2C33.2,33.2,33.1,33.3,33,33.5z
				 M33.5,58.9c-1.8,2-2.9,4.6-3.1,7.2c-0.1,2.2,0,4.4,0.8,6.5c0.8,2.3,2.2,4.5,4,6.2c2,2,4.5,3.6,7.1,4.7c1.6,0.7,3.4,0.9,5.1,1
				c2.2-0.1,4.3-0.4,6.4-0.9c-0.8,0.6-1.8,1.1-2.5,1.9c1.1-0.2,2.1-0.5,3.2-0.8c-0.3,0.6-0.4,1.2-0.5,1.8c1.5-0.8,2.8-1.9,4-3.1
				c0.6-0.6,1.2-1.1,1.7-1.8c0,0.5,0,1,0,1.5c0.1,1.2,0,2.5,0.1,3.7c0.4-0.3,0.4-0.8,0.5-1.3c1.3-5.7,1.2-11.8-1-17.2
				c-0.3-0.7-0.6-1.5-1.1-2.1c-0.4,0.6-0.9,1.1-1.4,1.7c-1.1-1.5-2.1-3.2-3.2-4.8c-1.8-2.6-4.2-4.8-7.1-6.1
				c-2.1-0.9-4.4-1.4-6.6-1.2C37.4,55.9,35.1,57.1,33.5,58.9z M79,57.8c-2.2,1.3-4,3.1-5.4,5.2c-1.7,2.2-2.6,4.9-4.7,6.8
				c-0.4-0.2-0.7-0.5-1.1-0.6c-1,2.1-1.4,4.5-1.4,6.9c-0.2,3.1-0.1,6.3,0.7,9.4c0.1,0.3,0.2,0.5,0.4,0.7c0-1.5,0.2-3.1,0.2-4.6
				c1.6,1.8,3.4,3.5,5.5,4.8c-0.1-0.6-0.3-1.2-0.5-1.7c1.4,0.4,2.8,1,4.3,1.2c-1.3-1-2.8-1.6-4-2.6c3.3,1,6.9,1.8,10.3,0.9
				c5.2-1.5,10-5,12.3-10c0.9-1.9,1.3-4,1.4-6c0.1-2.5-0.5-5.1-1.8-7.2c-0.7-1.2-1.7-2.3-2.7-3.2c-1.8-1.5-4.2-2.2-6.5-2
				C83.5,55.8,81.1,56.5,79,57.8z M91,85.5c-2.7,1.6-5.8,2.7-8.9,3.2c0.7,1.2,1.8,2.1,2.2,3.5c0.2,0.8,0.2,1.5,0.2,2.3
				c-0.2,2.6-1.2,5-2.4,7.2c-1.8,3.7-4.6,6.9-7.5,9.8c-1,1-2.1,1.9-3.1,3c1.2-0.3,2.3-0.9,3.4-1.6c3.7-2.2,6.5-5.4,8.9-8.9
				c3-4.3,5.4-9,7.4-13.8c0.9-2.2,1.9-4.5,2.6-6.8C92.9,84.2,92,84.9,91,85.5z M33.6,84.1c1.1,3.2,2.3,6.5,3.8,9.5
				c0.3,0.5,0.5,1.1,1,1.6c0-1.8-0.2-3.7,0.4-5.5c0.2-0.8,0.8-1.5,1.3-2.2c-0.3-0.2-0.6-0.3-0.9-0.5C37.3,86.2,35.5,85,33.6,84.1z
				 M58.7,93.3c-0.9,1.2-1.3,2.8-1.2,4.3c0.6,0,1.2,0,1.8-0.1c0.8-0.3,1-1.1,1.3-1.8c0.4-1.4,0.4-2.8,0.5-4.2
				C60.1,91.9,59.3,92.5,58.7,93.3z M66,91.4c0,1,0.2,2,0.3,3c0.2,1.2,0.5,2.5,1.6,3.2c0.5,0.3,1.1,0.2,1.6-0.1
				c0.1-0.6,0.1-1.1,0.1-1.7C69.2,93.8,67.7,92.1,66,91.4z M56.1,94.3c-0.4,1-0.5,2.1-0.3,3.2c0.2-0.1,0.3-0.3,0.4-0.5
				c0.5-1.1,0.8-2.4,1.3-3.5c0.2-0.6,0.6-1.2,0.9-1.8C57.2,92.2,56.5,93.2,56.1,94.3z M69.5,92.1c0.2,1.2,0.6,2.4,1,3.5
				c0.2,0.6,0.4,1.2,0.8,1.7C71.4,95.5,71,93.4,69.5,92.1z M61.6,102.8c-0.5,0.1-1.1,0.3-1.5,0.7c1.1,0,2.2-0.2,3.3-0.1
				c1.2-0.1,2.3,0.2,3.5,0.2c-0.1-0.1-0.3-0.2-0.5-0.3C64.9,102.5,63.2,102.4,61.6,102.8z M57.6,104.9c-0.6,0.1-1.2,0.2-1.8,0.5
				c3.1,0.1,6.1,1.1,9.1,0.8c2.1-0.4,4.3-0.6,6.4-0.7c-0.1-0.1-0.1-0.3-0.2-0.4c-1-0.3-2.1-0.5-3.2-0.4c-2.3,0.1-4.6,0.9-6.9,0.3
				C60,104.6,58.8,104.6,57.6,104.9z M57.1,106.5c0.6,0.8,1.3,1.3,2.1,1.8c0.9,0.7,1.9,1.3,2.9,1.8c0.2,0.8,0.2,1.7,0.3,2.6
				c0.1,1.4-0.3,2.8-0.9,4.1c1.4,0,2.8,0,4.2,0c-0.3-0.8-0.6-1.5-0.8-2.3c-0.2-1.4-0.1-3,0.7-4.3c1.3-1.4,3.1-2.2,4.3-3.7
				c-1.2,0.4-2.2,1.2-3.3,1.6c-0.9,0.4-1.9,0.7-3,0.8c-1.4,0-2.7-0.5-3.9-1.2C58.8,107.4,58,106.8,57.1,106.5z"/>
		</g>
		<path class="st3" d="M53.1,69.9c0.8,1.1,1.3,2.3,1.7,3.6C53.9,72.5,53.4,71.2,53.1,69.9z"/>
	</g>
</g>
<path class="st3" d="M163.8,22.4c2.6,0,4.8,0.2,6.6,0.7c1.8,0.5,3.3,1.3,4.4,2.3c1.1,1.1,2,2.4,2.5,4.1c0.5,1.7,0.8,3.8,0.8,6.2v8.7
	c0,2.4-0.3,4.5-0.8,6.2c-0.5,1.7-1.3,3.1-2.5,4.2c-1.1,1.1-2.6,1.8-4.4,2.3c-1.8,0.5-4,0.7-6.6,0.7h-15.7c-2.6,0-4.8-0.2-6.5-0.7
	c-1.8-0.5-3.3-1.2-4.4-2.3c-1.1-1.1-2-2.5-2.5-4.2c-0.5-1.7-0.8-3.8-0.8-6.2v-8.7c0-2.4,0.3-4.5,0.8-6.2c0.5-1.7,1.4-3.1,2.5-4.1
	c1.1-1.1,2.6-1.8,4.4-2.3c1.8-0.5,4-0.7,6.5-0.7H163.8z M141.7,44c0,1.3,0.1,2.4,0.3,3.3c0.2,0.9,0.6,1.6,1.1,2.1
	c0.5,0.5,1.2,0.9,2.1,1.1c0.9,0.2,2,0.3,3.3,0.3h15.1c1.3,0,2.4-0.1,3.3-0.3c0.9-0.2,1.5-0.6,2.1-1.1c0.5-0.5,0.9-1.2,1.1-2.1
	c0.2-0.9,0.3-2,0.3-3.3v-7.6c0-1.3-0.1-2.4-0.3-3.3c-0.2-0.9-0.6-1.6-1.1-2.1c-0.5-0.5-1.2-0.9-2.1-1.1c-0.9-0.2-2-0.3-3.3-0.3
	h-15.1c-1.3,0-2.4,0.1-3.3,0.3c-0.9,0.2-1.5,0.6-2.1,1.1c-0.5,0.5-0.9,1.2-1.1,2.1c-0.2,0.9-0.3,2-0.3,3.3V44z"/>
<path class="st3" d="M187,22.4c0.3,0,0.6,0.1,0.7,0.2s0.3,0.3,0.4,0.5L203,50.4c0.1,0.2,0.3,0.4,0.6,0.4h0.3c0.2,0,0.4-0.1,0.6-0.4
	L219.1,23c0.2-0.4,0.6-0.7,1.2-0.7h6.7c0.4,0,0.7,0.1,0.7,0.3c0.1,0.2,0,0.5-0.1,0.8l-16.7,30.5c-0.8,1.6-1.7,2.6-2.5,3.1
	c-0.8,0.5-1.8,0.8-2.8,0.8h-2.9c-1.3,0-2.4-0.3-3.3-0.8c-0.9-0.5-1.7-1.5-2.6-3.1l-16.9-30.5c-0.2-0.3-0.2-0.6-0.1-0.8
	c0.1-0.2,0.3-0.3,0.8-0.3H187z"/>
<path class="st3" d="M240.9,22.4c0.8,0,1.5,0,2,0.1c0.5,0.1,1,0.2,1.4,0.4c0.4,0.2,0.8,0.5,1.2,0.9c0.4,0.4,0.8,0.9,1.3,1.5
	l18.9,24.8c0.1,0.2,0.4,0.4,0.7,0.4h0.5c0.3,0,0.4-0.2,0.4-0.5V23.5c0-0.7,0.4-1.1,1.1-1.1h5.3c0.7,0,1.1,0.4,1.1,1.1v29.1
	c0,2.1-0.4,3.5-1.1,4.2c-0.7,0.7-1.9,1.1-3.5,1.1h-4.4c-0.8,0-1.4,0-2-0.1c-0.5-0.1-1-0.2-1.4-0.4s-0.8-0.5-1.2-0.9
	c-0.4-0.4-0.8-0.9-1.3-1.6L241,30.2c-0.2-0.2-0.4-0.4-0.7-0.4h-0.5c-0.3,0-0.4,0.2-0.4,0.5v26.5c0,0.7-0.4,1.1-1.1,1.1H233
	c-0.8,0-1.2-0.4-1.2-1.1V27.7c0-2.1,0.4-3.5,1.1-4.2c0.7-0.7,1.9-1.1,3.5-1.1H240.9z"/>
<path class="st3" d="M288.1,22.4c0.7,0,1.1,0.4,1.1,1.1v33.3c0,0.7-0.4,1.1-1.1,1.1h-5.5c-0.8,0-1.2-0.4-1.2-1.1V23.5
	c0-0.7,0.4-1.1,1.2-1.1H288.1z"/>
<path class="st3" d="M331.3,22.4c0.7,0,1.1,0.4,1.1,1.1v4.8c0,0.7-0.4,1.1-1.1,1.1h-25.4c-1,0-1.7,0.3-2.1,0.8s-0.6,1.2-0.6,2.1V34
	c0,1.9,0.9,2.8,2.6,2.8h19c2.9,0,5.2,0.8,6.7,2.3c1.5,1.5,2.2,3.7,2.2,6.5v4.1c0,2.5-0.7,4.5-2.2,6c-1.5,1.5-3.7,2.3-6.8,2.3h-28.1
	c-0.8,0-1.2-0.4-1.2-1.1V52c0-0.7,0.4-1.1,1.2-1.1h26.7c1,0,1.7-0.3,2.1-0.8s0.6-1.2,0.6-2.1v-2.1c0-1.9-0.9-2.8-2.6-2.8h-19
	c-2.9,0-5.2-0.8-6.7-2.3c-1.5-1.5-2.2-3.7-2.2-6.5v-3.7c0-2.5,0.7-4.5,2.2-6c1.5-1.5,3.7-2.3,6.8-2.3H331.3z"/>
<path class="st1" d="M163.1,73.6c3.9,0,6.7,0.9,8.4,2.6c1.7,1.8,2.5,4.4,2.5,7.8V87c0,2.9-0.6,5.2-1.8,6.9c-1.2,1.7-3.1,2.8-5.8,3.2
	l8.7,10.8c0.2,0.2,0.2,0.4,0.2,0.8c-0.1,0.3-0.3,0.5-0.8,0.5H168c-0.4,0-0.7-0.1-0.9-0.2c-0.2-0.1-0.3-0.3-0.5-0.5l-8-10.6h-16.4
	V108c0,0.7-0.4,1.1-1.1,1.1h-5.5c-0.8,0-1.2-0.4-1.2-1.1V75.1c0-1,0.5-1.5,1.5-1.5H163.1z M142.1,91.7h19.4c1.7,0,2.9-0.4,3.7-1.1
	c0.7-0.7,1.1-1.9,1.1-3.4v-2.1c0-1.5-0.4-2.7-1.1-3.4c-0.7-0.7-1.9-1.1-3.7-1.1h-18.8c-0.4,0-0.7,0.2-0.7,0.6V91.7z"/>
<path class="st1" d="M215.5,73.6c0.8,0,1.2,0.4,1.2,1.1v4.8c0,0.7-0.4,1.1-1.2,1.1h-22.2c-1.3,0-2.4,0.1-3.3,0.3
	c-0.9,0.2-1.6,0.6-2.1,1.1c-0.5,0.5-0.9,1.2-1.1,2.1c-0.2,0.9-0.3,2-0.3,3.3v0.5h28.7c0.7,0,1.1,0.4,1.1,1.1v4
	c0,0.7-0.4,1.1-1.1,1.1h-28.7v0.9c0,1.3,0.1,2.4,0.3,3.3c0.2,0.9,0.6,1.6,1.1,2.1c0.5,0.5,1.2,0.9,2.1,1.1c0.9,0.2,2,0.3,3.3,0.3
	h22.2c0.8,0,1.2,0.4,1.2,1.1v4.8c0,0.7-0.4,1.1-1.2,1.1h-22.3c-2.6,0-4.8-0.2-6.5-0.7c-1.8-0.5-3.3-1.2-4.4-2.3
	c-1.1-1.1-2-2.5-2.5-4.2c-0.5-1.7-0.8-3.8-0.8-6.2V87c0-2.4,0.3-4.5,0.8-6.2c0.5-1.7,1.4-3.1,2.5-4.1c1.1-1.1,2.6-1.8,4.4-2.3
	c1.8-0.5,4-0.7,6.5-0.7H215.5z"/>
<path class="st1" d="M245.1,73.6c1.3,0,2.4,0.3,3.2,0.8c0.9,0.5,1.7,1.5,2.6,3.1l16.8,30.5c0.2,0.3,0.2,0.6,0.1,0.8
	c-0.1,0.2-0.3,0.3-0.7,0.3h-6.4c-0.6,0-1-0.2-1.2-0.7l-3.6-6.5H232l-3.5,6.5c-0.2,0.4-0.6,0.7-1.2,0.7h-6.6c-0.4,0-0.7-0.1-0.8-0.3
	c-0.1-0.2,0-0.5,0.1-0.8l16.7-30.5c0.8-1.5,1.7-2.5,2.5-3.1c0.8-0.5,1.8-0.8,2.8-0.8H245.1z M235.2,96.1h17.5l-8.1-14.9
	c-0.1-0.2-0.3-0.4-0.6-0.4h-0.3c-0.2,0-0.4,0.1-0.6,0.4L235.2,96.1z"/>
<path class="st1" d="M276.6,73.6c0.7,0,1.1,0.4,1.1,1.1V95c0,1.4,0.1,2.5,0.3,3.4c0.2,0.9,0.6,1.6,1.1,2.1c0.5,0.5,1.2,0.9,2.1,1.1
	c0.9,0.2,2,0.3,3.3,0.3H305c0.7,0,1.1,0.4,1.1,1.1v5c0,0.7-0.4,1.1-1.1,1.1h-20.9c-2.6,0-4.8-0.2-6.5-0.7c-1.8-0.5-3.3-1.2-4.4-2.3
	c-1.1-1.1-2-2.5-2.5-4.2c-0.5-1.7-0.8-3.8-0.8-6.2v-21c0-0.7,0.4-1.1,1.2-1.1H276.6z"/>
<path class="st1" d="M346.8,73.6c0.8,0,1.2,0.4,1.2,1.1v4.8c0,0.7-0.4,1.1-1.2,1.1h-22.2c-1.3,0-2.4,0.1-3.3,0.3
	c-0.9,0.2-1.6,0.6-2.1,1.1c-0.5,0.5-0.9,1.2-1.1,2.1c-0.2,0.9-0.3,2-0.3,3.3v0.5h28.7c0.7,0,1.1,0.4,1.1,1.1v4
	c0,0.7-0.4,1.1-1.1,1.1h-28.7v0.9c0,1.3,0.1,2.4,0.3,3.3c0.2,0.9,0.6,1.6,1.1,2.1c0.5,0.5,1.2,0.9,2.1,1.1c0.9,0.2,2,0.3,3.3,0.3
	h22.2c0.8,0,1.2,0.4,1.2,1.1v4.8c0,0.7-0.4,1.1-1.2,1.1h-22.3c-2.6,0-4.8-0.2-6.5-0.7c-1.8-0.5-3.3-1.2-4.4-2.3
	c-1.1-1.1-2-2.5-2.5-4.2c-0.5-1.7-0.8-3.8-0.8-6.2V87c0-2.4,0.3-4.5,0.8-6.2c0.5-1.7,1.4-3.1,2.5-4.1c1.1-1.1,2.6-1.8,4.4-2.3
	c1.8-0.5,4-0.7,6.5-0.7H346.8z"/>
<path class="st1" d="M389.1,73.6c0.7,0,1.1,0.4,1.1,1.1v4.8c0,0.7-0.4,1.1-1.1,1.1h-25.4c-1,0-1.7,0.3-2.1,0.8s-0.6,1.2-0.6,2.1v1.7
	c0,1.9,0.9,2.8,2.6,2.8h19c2.9,0,5.2,0.8,6.7,2.3c1.5,1.5,2.2,3.7,2.2,6.5v4.1c0,2.5-0.7,4.5-2.2,6c-1.5,1.5-3.7,2.3-6.8,2.3h-28.1
	c-0.8,0-1.2-0.4-1.2-1.1v-4.8c0-0.7,0.4-1.1,1.2-1.1h26.7c1,0,1.7-0.3,2.1-0.8s0.6-1.2,0.6-2.1v-2.1c0-1.9-0.9-2.8-2.6-2.8h-19
	c-2.9,0-5.2-0.8-6.7-2.3c-1.5-1.5-2.2-3.7-2.2-6.5v-3.7c0-2.5,0.7-4.5,2.2-6c1.5-1.5,3.7-2.3,6.8-2.3H389.1z"/>
</svg>
