<?xml version="1.0" standalone="no"?>
<!DOCTYPE svg PUBLIC "-//W3C//DTD SVG 20010904//EN"
 "http://www.w3.org/TR/2001/REC-SVG-20010904/DTD/svg10.dtd">
<svg version="1.0" xmlns="http://www.w3.org/2000/svg"
 width="100.000000pt" height="100.000000pt" viewBox="0 0 1124.000000 1280.000000"
 preserveAspectRatio="xMidYMid meet">
<metadata>
Created by potrace 1.15, written by Peter Selinger 2001-2017
</metadata>
<g transform="translate(0.000000,1280.000000) scale(0.100000,-0.100000)"
fill="#000000" stroke="none">
<path d="M5165 12790 c-731 -47 -1426 -233 -2080 -555 -381 -188 -700 -396
-1035 -674 -155 -128 -523 -497 -650 -651 -311 -376 -551 -749 -755 -1175
-333 -691 -541 -1450 -622 -2265 -21 -217 -24 -826 -5 -1025 82 -845 285
-1551 663 -2307 649 -1297 1838 -2650 3014 -3429 550 -365 1106 -600 1622
-686 133 -22 501 -24 668 -4 257 31 542 100 747 182 734 292 1683 1094 2604
2199 1175 1411 1752 2658 1879 4066 23 250 30 644 16 884 -51 856 -248 1611
-612 2340 -213 425 -433 762 -740 1131 -131 158 -508 535 -664 665 -829 689
-1777 1111 -2830 1258 -324 46 -889 67 -1220 46z m680 -230 c617 -36 1184
-160 1737 -381 142 -57 390 -168 472 -214 23 -12 82 -44 131 -70 1167 -627
2084 -1734 2514 -3035 210 -633 301 -1251 288 -1950 -15 -770 -140 -1393 -420
-2085 -389 -966 -1125 -2021 -2102 -3014 -859 -872 -1463 -1294 -2115 -1476
-331 -92 -778 -112 -1105 -49 -607 117 -1455 578 -2090 1137 -244 214 -808
778 -1032 1032 -308 349 -689 871 -940 1290 -518 865 -806 1694 -908 2615 -22
197 -31 730 -16 941 78 1091 420 2132 979 2979 381 578 880 1079 1432 1438
925 602 2073 906 3175 842z"/>
<path d="M8578 8080 c-159 -25 -363 -76 -493 -124 -270 -100 -626 -305 -875
-505 -142 -114 -395 -371 -504 -511 -275 -354 -455 -725 -532 -1095 -24 -113
-27 -154 -28 -315 0 -200 7 -256 55 -415 113 -369 363 -628 729 -754 93 -33
185 -48 354 -61 553 -41 1148 165 1698 590 144 111 431 394 542 532 282 357
459 721 538 1109 31 152 33 494 5 629 -53 250 -143 428 -296 580 -161 160
-354 259 -641 327 -148 35 -374 40 -552 13z"/>
<path d="M2250 7835 c-217 -30 -417 -104 -582 -217 -136 -92 -294 -265 -371
-408 -220 -403 -187 -995 84 -1540 374 -750 1065 -1307 1869 -1504 194 -48
295 -60 467 -53 287 10 579 94 763 220 67 46 244 222 305 302 316 421 293
1111 -57 1750 -65 117 -199 318 -284 425 -87 109 -344 367 -454 454 -532 424
-1203 645 -1740 571z"/>
</g>
</svg>
